<svg xmlns="http://www.w3.org/2000/svg" xmlns:xlink="http://www.w3.org/1999/xlink" width="500" zoomAndPan="magnify" viewBox="0 0 375 374.999991" height="500" preserveAspectRatio="xMidYMid meet" version="1.0"><defs><g/><clipPath id="34a1f75b4a"><path d="M 22.222656 116.714844 L 166.972656 116.714844 L 166.972656 254.714844 L 22.222656 254.714844 Z M 22.222656 116.714844 " clip-rule="nonzero"/></clipPath><clipPath id="a1242f2b61"><path d="M 60.90625 157.082031 L 207.296875 157.082031 L 207.296875 217.625 L 60.90625 217.625 Z M 60.90625 157.082031 " clip-rule="nonzero"/></clipPath><clipPath id="43199a8cce"><path d="M 91.179688 157.082031 L 177.023438 157.082031 C 185.050781 157.082031 192.75 160.273438 198.425781 165.949219 C 204.105469 171.625 207.292969 179.324219 207.292969 187.355469 C 207.292969 195.382812 204.105469 203.082031 198.425781 208.757812 C 192.75 214.4375 185.050781 217.625 177.023438 217.625 L 91.179688 217.625 C 83.148438 217.625 75.449219 214.4375 69.773438 208.757812 C 64.097656 203.082031 60.90625 195.382812 60.90625 187.355469 C 60.90625 179.324219 64.097656 171.625 69.773438 165.949219 C 75.449219 160.273438 83.148438 157.082031 91.179688 157.082031 Z M 91.179688 157.082031 " clip-rule="nonzero"/></clipPath></defs><g clip-path="url(#34a1f75b4a)"><path fill="#272a80" d="M 91.339844 120.097656 C 106.585938 120.097656 121.445312 125.433594 133.179688 135.117188 C 133.480469 135.363281 133.855469 135.5 134.246094 135.5 L 149.320312 135.5 C 149.929688 136.691406 151.167969 137.503906 152.597656 137.503906 C 154.628906 137.503906 156.273438 135.859375 156.273438 133.828125 C 156.273438 131.796875 154.628906 130.148438 152.597656 130.148438 C 151.167969 130.148438 149.929688 130.964844 149.320312 132.152344 L 134.84375 132.152344 C 128.902344 127.335938 122.265625 123.566406 115.109375 120.945312 C 107.507812 118.164062 99.511719 116.75 91.339844 116.75 C 82.011719 116.75 72.957031 118.578125 64.433594 122.183594 C 56.203125 125.667969 48.8125 130.648438 42.464844 136.996094 C 36.117188 143.34375 31.132812 150.738281 27.652344 158.96875 C 24.046875 167.492188 22.21875 176.542969 22.21875 185.875 C 22.21875 195.207031 24.046875 204.257812 27.652344 212.78125 C 31.132812 221.011719 36.117188 228.402344 42.464844 234.753906 C 48.8125 241.097656 56.203125 246.082031 64.433594 249.566406 C 72.957031 253.171875 82.011719 254.996094 91.339844 254.996094 C 99.273438 254.996094 107.046875 253.664062 114.453125 251.039062 C 121.429688 248.5625 127.933594 244.996094 133.789062 240.433594 L 146.3125 240.433594 C 146.894531 241.699219 148.171875 242.578125 149.65625 242.578125 C 151.683594 242.578125 153.332031 240.929688 153.332031 238.898438 C 153.332031 236.871094 151.683594 235.222656 149.65625 235.222656 C 148.28125 235.222656 147.085938 235.972656 146.453125 237.085938 L 133.210938 237.085938 C 132.832031 237.085938 132.464844 237.214844 132.171875 237.449219 C 120.449219 246.738281 106.332031 251.652344 91.339844 251.652344 C 55.070312 251.652344 25.566406 222.144531 25.566406 185.875 C 25.566406 149.605469 55.074219 120.097656 91.339844 120.097656 Z M 162.980469 150.78125 C 165.050781 150.78125 166.726562 149.101562 166.726562 147.03125 C 166.726562 144.960938 165.050781 143.285156 162.980469 143.285156 C 161.566406 143.285156 160.339844 144.0625 159.699219 145.214844 L 105.457031 145.214844 C 105.410156 145.167969 105.375 145.105469 105.359375 145.035156 L 103.710938 137.96875 C 103.273438 136.101562 102.207031 134.414062 100.703125 133.21875 C 99.199219 132.027344 97.3125 131.367188 95.390625 131.367188 L 87.128906 131.367188 C 85.210938 131.367188 83.324219 132.027344 81.820312 133.21875 C 80.316406 134.414062 79.246094 136.101562 78.8125 137.96875 L 77.164062 145.035156 C 77.132812 145.171875 77.035156 145.273438 76.902344 145.324219 C 75.558594 145.800781 74.226562 146.355469 72.9375 146.964844 C 72.808594 147.027344 72.664062 147.023438 72.546875 146.949219 L 66.382812 143.117188 C 64.753906 142.101562 62.804688 141.667969 60.898438 141.886719 C 58.992188 142.105469 57.191406 142.976562 55.835938 144.332031 L 49.992188 150.171875 C 48.636719 151.53125 47.765625 153.328125 47.546875 155.238281 C 47.328125 157.144531 47.765625 159.09375 48.777344 160.722656 L 52.609375 166.886719 C 52.683594 167.003906 52.691406 167.144531 52.628906 167.277344 C 52.015625 168.5625 51.464844 169.898438 50.984375 171.242188 C 50.9375 171.375 50.832031 171.472656 50.699219 171.5 L 43.632812 173.148438 C 41.761719 173.585938 40.074219 174.65625 38.882812 176.160156 C 37.6875 177.664062 37.03125 179.550781 37.03125 181.46875 L 37.03125 190.464844 C 37.03125 191.921875 37.53125 193.355469 38.4375 194.496094 C 39.34375 195.640625 40.625 196.453125 42.042969 196.785156 L 49.429688 198.507812 C 50.378906 198.726562 51.140625 199.410156 51.46875 200.332031 C 51.945312 201.660156 52.488281 202.980469 53.09375 204.25 C 53.515625 205.136719 53.460938 206.160156 52.945312 206.992188 L 48.941406 213.433594 C 48.167969 214.671875 47.835938 216.148438 48.003906 217.597656 C 48.171875 219.046875 48.832031 220.414062 49.863281 221.445312 L 55.964844 227.546875 C 56.996094 228.578125 58.363281 229.238281 59.8125 229.40625 C 61.261719 229.574219 62.738281 229.238281 63.980469 228.46875 L 70.417969 224.464844 C 71.25 223.953125 72.273438 223.894531 73.160156 224.316406 C 74.429688 224.921875 75.75 225.46875 77.078125 225.941406 C 78 226.269531 78.683594 227.03125 78.902344 227.980469 L 80.628906 235.367188 C 80.957031 236.789062 81.769531 238.066406 82.914062 238.972656 C 84.054688 239.878906 85.488281 240.378906 86.945312 240.378906 L 95.578125 240.378906 C 97.035156 240.378906 98.46875 239.878906 99.609375 238.972656 C 100.753906 238.066406 101.5625 236.789062 101.894531 235.367188 L 103.621094 227.980469 C 103.839844 227.03125 104.523438 226.269531 105.445312 225.941406 C 106.773438 225.46875 108.089844 224.921875 109.359375 224.316406 C 110.25 223.894531 111.273438 223.953125 112.101562 224.464844 L 118.542969 228.46875 C 119.78125 229.238281 121.261719 229.574219 122.710938 229.40625 C 124.160156 229.238281 125.523438 228.578125 126.554688 227.546875 L 132.660156 221.445312 C 133.691406 220.414062 134.351562 219.046875 134.519531 217.597656 C 134.683594 216.148438 134.351562 214.671875 133.582031 213.433594 L 131.320312 209.792969 L 157.496094 209.792969 C 158.136719 210.945312 159.367188 211.726562 160.777344 211.726562 C 162.847656 211.726562 164.527344 210.046875 164.527344 207.976562 C 164.527344 205.90625 162.847656 204.226562 160.777344 204.226562 C 159.367188 204.226562 158.136719 205.007812 157.496094 206.160156 L 127.976562 206.160156 C 126.976562 206.160156 126.160156 206.972656 126.160156 207.976562 C 126.160156 208.5 126.382812 208.96875 126.738281 209.300781 L 130.5 215.347656 C 131.203125 216.484375 131.035156 217.933594 130.09375 218.875 L 123.988281 224.980469 C 123.042969 225.921875 121.59375 226.089844 120.460938 225.386719 L 114.019531 221.382812 C 112.136719 220.210938 109.8125 220.082031 107.800781 221.035156 C 106.640625 221.585938 105.4375 222.085938 104.226562 222.519531 C 102.132812 223.265625 100.582031 224.996094 100.078125 227.15625 L 98.359375 234.542969 C 98.054688 235.839844 96.910156 236.746094 95.578125 236.746094 L 86.945312 236.746094 C 85.609375 236.746094 84.46875 235.839844 84.164062 234.542969 L 82.441406 227.15625 C 81.9375 224.996094 80.390625 223.265625 78.296875 222.519531 C 77.082031 222.085938 75.878906 221.585938 74.722656 221.035156 C 72.710938 220.082031 70.386719 220.210938 68.5 221.382812 L 62.0625 225.386719 C 60.929688 226.089844 59.480469 225.921875 58.535156 224.980469 L 52.429688 218.875 C 51.488281 217.933594 51.320312 216.484375 52.023438 215.347656 L 56.027344 208.910156 C 57.199219 207.023438 57.328125 204.699219 56.375 202.691406 C 55.824219 201.527344 55.324219 200.324219 54.890625 199.113281 C 54.144531 197.019531 52.410156 195.472656 50.253906 194.96875 L 42.871094 193.246094 C 41.570312 192.941406 40.664062 191.800781 40.664062 190.464844 L 40.664062 187.964844 L 40.675781 185.707031 C 40.667969 185.671875 40.664062 185.636719 40.664062 185.601562 L 40.664062 181.46875 C 40.664062 180.367188 41.042969 179.28125 41.726562 178.417969 C 42.414062 177.554688 43.382812 176.9375 44.457031 176.6875 L 51.523438 175.039062 C 52.863281 174.726562 53.941406 173.761719 54.40625 172.460938 C 54.84375 171.234375 55.351562 170.011719 55.90625 168.835938 C 56.503906 167.585938 56.421875 166.140625 55.695312 164.96875 L 51.863281 158.804688 C 51.28125 157.867188 51.03125 156.75 51.15625 155.652344 C 51.28125 154.558594 51.78125 153.523438 52.5625 152.742188 L 58.402344 146.902344 C 59.183594 146.121094 60.21875 145.621094 61.3125 145.496094 C 62.410156 145.367188 63.53125 145.621094 64.464844 146.203125 L 70.632812 150.035156 C 71.800781 150.761719 73.246094 150.839844 74.496094 150.246094 C 75.671875 149.6875 76.894531 149.183594 78.121094 148.746094 C 79.425781 148.28125 80.386719 147.203125 80.699219 145.863281 L 82.351562 138.796875 C 82.601562 137.722656 83.214844 136.75 84.078125 136.066406 C 84.941406 135.378906 86.027344 135.003906 87.128906 135.003906 L 95.390625 135.003906 C 96.496094 135.003906 97.578125 135.378906 98.441406 136.066406 C 99.308594 136.75 99.921875 137.71875 100.171875 138.796875 L 101.820312 145.859375 C 102.132812 147.183594 103.074219 148.25 104.347656 148.726562 C 104.550781 148.804688 104.777344 148.851562 105.007812 148.851562 L 159.699219 148.851562 C 160.339844 150 161.566406 150.78125 162.980469 150.78125 Z M 65.15625 186.964844 C 65.15625 201.359375 76.867188 213.070312 91.261719 213.070312 C 105.65625 213.070312 117.363281 201.359375 117.363281 186.964844 C 117.363281 185.960938 118.179688 185.148438 119.179688 185.148438 L 151.761719 185.148438 C 152.402344 183.996094 153.628906 183.214844 155.042969 183.214844 C 157.113281 183.214844 158.792969 184.894531 158.792969 186.964844 C 158.792969 189.035156 157.113281 190.714844 155.042969 190.714844 C 153.628906 190.714844 152.402344 189.933594 151.761719 188.78125 L 120.945312 188.78125 C 120.742188 192.15625 119.976562 195.429688 118.660156 198.539062 C 117.164062 202.082031 115.019531 205.261719 112.289062 207.992188 C 109.558594 210.722656 106.378906 212.867188 102.835938 214.363281 C 99.167969 215.914062 95.273438 216.703125 91.261719 216.703125 C 87.246094 216.703125 83.351562 215.914062 79.6875 214.363281 C 76.144531 212.867188 72.964844 210.722656 70.234375 207.992188 C 67.503906 205.261719 65.359375 202.082031 63.863281 198.539062 C 62.3125 194.875 61.523438 190.980469 61.523438 186.964844 C 61.523438 182.953125 62.3125 179.058594 63.863281 175.390625 C 65.359375 171.847656 67.503906 168.667969 70.234375 165.9375 C 72.964844 163.207031 76.144531 161.066406 79.6875 159.566406 C 83.351562 158.015625 87.246094 157.226562 91.261719 157.226562 C 95.335938 157.226562 99.285156 158.039062 103.003906 159.636719 C 106.296875 161.054688 109.273438 163.03125 111.859375 165.519531 L 140.605469 165.519531 C 141.246094 164.367188 142.472656 163.585938 143.886719 163.585938 C 145.957031 163.585938 147.636719 165.265625 147.636719 167.335938 C 147.636719 169.40625 145.957031 171.085938 143.886719 171.085938 C 142.472656 171.085938 141.246094 170.304688 140.605469 169.152344 L 111.085938 169.152344 C 110.480469 169.152344 109.949219 168.859375 109.617188 168.40625 C 104.699219 163.535156 98.199219 160.863281 91.261719 160.863281 C 76.867188 160.863281 65.15625 172.570312 65.15625 186.964844 " fill-opacity="1" fill-rule="nonzero"/></g><g fill="#272a80" fill-opacity="1"><g transform="translate(189.526149, 204.220258)"><g/></g></g><g fill="#272a80" fill-opacity="1"><g transform="translate(206.531426, 204.220258)"><g><path d="M 33.40625 -31.703125 L 13.59375 -7.921875 L 33.40625 -7.921875 L 33.40625 0 L 1.125 0 L 1.125 -7.921875 L 20.953125 -31.703125 L 1.125 -31.703125 L 1.125 -39.640625 L 33.40625 -39.640625 Z M 33.40625 -31.703125 "/></g></g></g><g fill="#272a80" fill-opacity="1"><g transform="translate(241.070218, 204.220258)"><g><path d="M 34.828125 0 L 3.390625 0 L 3.390625 -39.640625 L 34.828125 -39.640625 L 34.828125 -31.703125 L 13.59375 -31.703125 L 13.59375 -24.0625 L 30.296875 -24.0625 L 30.296875 -16.140625 L 13.59375 -16.140625 L 13.59375 -7.921875 L 34.828125 -7.921875 Z M 34.828125 0 "/></g></g></g><g fill="#272a80" fill-opacity="1"><g transform="translate(277.024547, 204.220258)"><g><path d="M 3.390625 -39.640625 L 27.1875 -39.640625 C 31.144531 -39.640625 34.019531 -38.742188 35.8125 -36.953125 C 37.601562 -35.160156 38.5 -32.28125 38.5 -28.3125 L 38.5 -23.21875 C 38.5 -20.082031 37.976562 -17.644531 36.9375 -15.90625 C 35.90625 -14.175781 34.257812 -13.023438 32 -12.453125 L 39.078125 0 L 28.03125 0 L 21.515625 -11.890625 L 13.59375 -11.890625 L 13.59375 0 L 3.390625 0 Z M 28.3125 -28.3125 C 28.3125 -30.570312 27.179688 -31.703125 24.921875 -31.703125 L 13.59375 -31.703125 L 13.59375 -19.8125 L 24.921875 -19.8125 C 27.179688 -19.8125 28.3125 -20.945312 28.3125 -23.21875 Z M 28.3125 -28.3125 "/></g></g></g><g fill="#272a80" fill-opacity="1"><g transform="translate(317.791669, 204.220258)"><g><path d="M 28.875 -28.875 C 28.875 -31.144531 27.742188 -32.28125 25.484375 -32.28125 L 15.859375 -32.28125 C 13.585938 -32.28125 12.453125 -31.144531 12.453125 -28.875 L 12.453125 -10.765625 C 12.453125 -8.492188 13.585938 -7.359375 15.859375 -7.359375 L 25.484375 -7.359375 C 27.742188 -7.359375 28.875 -8.492188 28.875 -10.765625 Z M 39.078125 -10.765625 C 39.078125 -6.796875 38.175781 -3.914062 36.375 -2.125 C 34.582031 -0.332031 31.707031 0.5625 27.75 0.5625 L 13.59375 0.5625 C 9.625 0.5625 6.742188 -0.332031 4.953125 -2.125 C 3.160156 -3.914062 2.265625 -6.796875 2.265625 -10.765625 L 2.265625 -28.875 C 2.265625 -32.84375 3.160156 -35.722656 4.953125 -37.515625 C 6.742188 -39.304688 9.625 -40.203125 13.59375 -40.203125 L 27.75 -40.203125 C 31.707031 -40.203125 34.582031 -39.304688 36.375 -37.515625 C 38.175781 -35.722656 39.078125 -32.84375 39.078125 -28.875 Z M 39.078125 -10.765625 "/></g></g></g><g clip-path="url(#a1242f2b61)"><g clip-path="url(#43199a8cce)"><path fill="#272a80" d="M 60.90625 157.082031 L 207.296875 157.082031 L 207.296875 217.625 L 60.90625 217.625 Z M 60.90625 157.082031 " fill-opacity="1" fill-rule="nonzero"/></g></g><g fill="#ffffff" fill-opacity="1"><g transform="translate(76.336245, 204.979338)"><g><path d="M 33.96875 -0.5625 C 25.550781 0.1875 18.570312 0.5625 13.03125 0.5625 C 9.320312 0.5625 6.597656 -0.300781 4.859375 -2.03125 C 3.128906 -3.769531 2.265625 -6.488281 2.265625 -10.1875 L 2.265625 -28.3125 C 2.265625 -32.28125 3.160156 -35.160156 4.953125 -36.953125 C 6.742188 -38.742188 9.625 -39.640625 13.59375 -39.640625 L 33.96875 -39.640625 L 33.96875 -31.703125 L 15.859375 -31.703125 C 13.585938 -31.703125 12.453125 -30.570312 12.453125 -28.3125 L 12.453125 -10.1875 C 12.453125 -9.320312 12.707031 -8.632812 13.21875 -8.125 C 13.726562 -7.613281 14.378906 -7.359375 15.171875 -7.359375 C 15.960938 -7.359375 16.832031 -7.367188 17.78125 -7.390625 C 18.726562 -7.410156 19.707031 -7.4375 20.71875 -7.46875 C 21.738281 -7.507812 22.769531 -7.546875 23.8125 -7.578125 C 24.851562 -7.617188 26.191406 -7.695312 27.828125 -7.8125 C 29.472656 -7.925781 31.519531 -8.054688 33.96875 -8.203125 Z M 33.96875 -0.5625 "/></g></g></g><g fill="#ffffff" fill-opacity="1"><g transform="translate(111.443753, 204.979338)"><g><path d="M 10.46875 0 L -0.5625 0 L 14.4375 -39.640625 L 25.765625 -39.640625 L 40.765625 0 L 29.734375 0 L 27.1875 -7.078125 L 13.03125 -7.078125 Z M 15.578125 -14.4375 L 24.625 -14.4375 L 20.109375 -27.75 Z M 15.578125 -14.4375 "/></g></g></g><g fill="#ffffff" fill-opacity="1"><g transform="translate(151.647508, 204.979338)"><g><path d="M 3.390625 -39.640625 L 27.1875 -39.640625 C 31.144531 -39.640625 34.019531 -38.742188 35.8125 -36.953125 C 37.601562 -35.160156 38.5 -32.28125 38.5 -28.3125 L 38.5 -22.65625 C 38.5 -18.6875 37.601562 -15.804688 35.8125 -14.015625 C 34.019531 -12.222656 31.144531 -11.328125 27.1875 -11.328125 L 13.59375 -11.328125 L 13.59375 0 L 3.390625 0 Z M 28.3125 -28.3125 C 28.3125 -30.570312 27.179688 -31.703125 24.921875 -31.703125 L 13.59375 -31.703125 L 13.59375 -19.25 L 24.921875 -19.25 C 27.179688 -19.25 28.3125 -20.382812 28.3125 -22.65625 Z M 28.3125 -28.3125 "/></g></g></g></svg>